<?xml version="1.0" encoding="utf-8"?>
<!-- Generator: Adobe Illustrator 21.1.0, SVG Export Plug-In . SVG Version: 6.00 Build 0)  -->
<svg version="1.1" id="SvgjsSvg1001" xmlns:svgjs="http://svgjs.com/svgjs"
	 xmlns="http://www.w3.org/2000/svg" xmlns:xlink="http://www.w3.org/1999/xlink" x="0px" y="0px" viewBox="0 0 500 500"
	 style="enable-background:new 0 0 500 500;" xml:space="preserve">
<style type="text/css">
	.st0{opacity:0.3;fill:none;stroke:#FFFFFF;stroke-miterlimit:10;}
</style>
<polyline id="SvgjsPolyline1008" class="st0" points="245.3,252.6 242.6,252.7 239.2,252.5 234.9,252.8 229.5,254.8 223.8,259.5 
	219,267.1 216.1,276.2 214.6,285.4 214.5,294.3 213.8,301.3 210.6,305.1 204.6,305.4 197,303 189.4,299.7 183.1,297.9 178.8,300.3 
	177.3,308.3 179.3,320.7 184.6,334.8 194.7,350.4 208.4,364.9 220.7,375.6 225.2,382.3 218.4,385.3 201.6,383.7 180.2,376.7 
	160.1,366.5 143.9,356.1 129.7,344.6 117.6,332.9 108.4,324.5 102.3,322.7 99.6,329.3 100.4,343.1 104.4,360.3 109.1,376.1 
	111,386.5 108.6,391.4 105,395 101.5,398.5 98,402 94.4,405.6 90.9,409.1 87.4,412.6 83.8,416.2 80.3,419.7 76.8,423.2 73.2,426.8 
	69.7,430.3 66.2,433.8 62.6,437.4 59.1,440.9 55.5,444.5 52,448 48.5,451.5 44.9,455.1 41.4,458.6 37.9,462.1 36.2,467.8 
	42.7,481.7 56.2,500 "/>
<line id="SvgjsPolyline1009" class="st0" x1="2.5" y1="497.5" x2="0" y2="495"/>
<path id="SvgjsPolyline1010" class="st0" d="M245.3,252.6"/>
<polyline id="SvgjsPolyline1011" class="st0" points="245.6,253.1 243,253.3 239.9,253.1 235.8,253.4 230.7,254.9 225.3,258.9 
	220.4,265.6 217.1,274.1 215.2,282.9 214.6,291.7 213.9,298.9 211.2,303.4 206.3,305 199.8,304.4 193.2,303.2 187.7,303.5 
	184.3,307.3 184,315.9 187.3,328.1 194,341.5 205.5,355.8 220.4,368.6 233.3,377.9 238.1,384 231.5,387.6 214.6,387.6 192.7,382.8 
	172,374.7 155.1,366.1 140.1,356.5 127.5,347.3 118.6,342.1 114.1,344.2 114.4,354.6 120,371.3 129.6,389.9 139.3,405.8 
	144.3,416.2 143.1,421.5 139.9,425.4 135.2,428.1 128.2,429 119.2,428 109.1,425.6 98.9,422.7 89.8,420.3 82.4,419.5 76.9,420.8 
	72.8,423.8 69.4,427.5 67.5,432.9 68,440.9 71,451.2 75.8,462.8 81.5,474.5 86.6,485.1 89.6,493.7 89.9,500 "/>
<path id="SvgjsPolyline1012" class="st0" d="M245.6,253.1"/>
<polyline id="SvgjsPolyline1013" class="st0" points="245.5,254.2 243.1,254.5 240.1,254.3 236.4,254.3 231.8,255.4 226.6,258.5 
	221.8,264 218,271.3 215.5,279.4 214.1,287.8 213.1,295.2 211.1,300.6 207.6,304 203,306 198.2,307.8 194.4,310.9 192.6,316.6 
	194,325.7 198.9,337 206.9,348.9 219.1,361 233.6,371.2 245.3,378.7 248.8,384.2 241.4,388.2 224.6,389.3 203.3,386.5 183.4,380.9 
	167.1,375 152.7,368.4 141.1,363.1 134.3,362.6 133.4,369.3 139.2,383.1 151.5,400.8 167.6,418.1 182,431.4 189.2,440.1 
	188.4,445.1 184.9,449.1 178.3,451.7 167.3,452 152.5,449.7 135.7,444.8 119,438.6 104.5,432.6 93.3,428.8 85.6,428.1 80.5,429.9 
	76.4,432.8 74.9,438.5 77.5,448.3 84.9,462 96.6,478.1 110.9,494.3 116.5,500 "/>
<path id="SvgjsPolyline1014" class="st0" d="M245.5,254.2"/>
<polyline id="SvgjsPolyline1015" class="st0" points="245.5,256.3 243,256.6 240.2,256.3 236.7,256.1 232.5,256.7 227.8,258.8 
	223.1,263 219,269 215.9,276.1 213.8,283.8 212.4,291.2 210.9,297.7 209.1,303.3 207,308.4 205.1,313.6 204.1,319.6 205,327.1 
	208.4,336.1 214.7,345.9 223.4,355.6 234.8,364.8 246.8,372.4 254.9,378.4 255.3,383.4 246.4,387.4 230.1,389.2 210.9,388.1 
	193.6,385.2 180,382.7 168.1,380.1 159.9,379.8 157.9,384.6 163.5,395.3 177,410.1 196.6,425.2 217.7,437.4 234.1,446 240.9,452 
	238.9,456.7 233.9,461.1 225.2,464.6 211.3,466.6 192.7,466.3 171.6,463.2 150.5,458.1 132,452.4 117.5,448 107.3,446.2 
	100.1,446.6 94,447.9 90.7,451.6 92.4,459.7 100.5,472.7 115.2,489.2 127.6,500 "/>
<path id="SvgjsPolyline1016" class="st0" d="M245.5,256.3"/>
<polyline id="SvgjsPolyline1017" class="st0" points="246.2,258.8 243.5,259.5 240.5,259.2 237.1,258.9 233.2,259 228.8,260.4 
	224.4,263.5 220.3,268.4 216.9,274.6 214.4,281.4 212.7,288.6 211.7,296.2 211.6,303.8 212.3,311.7 213.9,319.6 216.6,327.8 
	220.5,336 226,344.2 232.9,352.2 241.1,359.7 250.2,366.3 257.9,372.1 260.9,377.2 257.2,382 246.7,385.9 231.6,388 215.7,388.2 
	202.8,388.1 193.6,389 186.3,390.6 183.9,394.9 189.3,403.6 203.4,415.4 224.6,427.2 248.9,436.2 270.7,441.9 284.7,446 
	288.3,450.6 283.5,456.1 276.1,461.6 265.7,466.9 251.2,471.4 232.9,474.4 212.2,475.5 191.2,474.6 171.9,472.5 155.7,470.3 
	142.8,469 132.4,468.6 122.7,468.2 115,468.9 112.1,473 116.6,482.1 129.6,495.9 134.8,500 "/>
<path id="SvgjsPolyline1018" class="st0" d="M246.2,258.8"/>
<polyline id="SvgjsPolyline1019" class="st0" points="247.7,261.2 245,262.5 241.7,262.7 238.1,262.5 234.2,262.5 230,263.5 
	225.8,266.1 222,270.2 218.7,275.7 216.2,281.8 214.5,288.8 214.3,297 215.8,306 219.1,315.5 224.2,324.9 230.4,333.7 237.1,341.5 
	243.7,348.5 250.3,354.8 257.2,360.5 263,365.8 265.6,370.8 263.3,375.7 255.7,380.3 243.9,383.8 230.6,386 219,387.6 211.4,390.1 
	207.8,393.9 206.4,398.7 211.4,406 225.4,415.5 247.3,424.4 273.4,430.3 297.9,432.6 315.7,433.6 324,436.3 322.7,442 314.5,449.4 
	304.3,456.7 292.9,463.6 280,469.8 265.9,475.3 250.7,479.8 234.9,483.2 219.2,485.6 203.8,487.1 189,487.9 174.6,488 159.8,487.1 
	145.4,485.6 134.7,485.5 131.8,489.5 139.2,499.3 140.2,500 "/>
<path id="SvgjsPolyline1020" class="st0" d="M247.7,261.2"/>
<polyline id="SvgjsPolyline1021" class="st0" points="249.7,262.7 247.3,264.9 244,266 240.1,266.4 236.1,266.8 232,268 
	228.1,270.4 224.6,274.2 221.8,279.3 219.5,285 218.3,291.8 218.9,300 221.9,309.4 227.5,319.3 235.2,328.6 243.8,336.7 252,343.4 
	258.8,349.1 264.5,354.3 269.7,359.2 272.2,364 270.1,369.1 263.1,374.1 252.4,378.4 240.2,381.5 229.4,384 222.3,387 220.2,391.5 
	222.3,397.4 227.3,404 239.8,411.7 261.3,418.8 288.4,422.4 315.3,421.8 336.1,419.8 347.6,420.1 349.2,424.9 342.4,433.4 
	330.7,443.1 317.8,452.2 306,459.9 296.2,466.6 288.4,472.6 281.8,478.1 274.8,483.5 265.9,488.6 254,493.3 238.5,497 220.2,499.3 
	200.1,499.9 177.9,498.1 157.8,495.3 145.5,495 145.4,500 "/>
<path id="SvgjsPolyline1022" class="st0" d="M249.7,262.7"/>
<polyline id="SvgjsPolyline1023" class="st0" points="251.6,263.3 249.9,266.3 247,268.5 243.3,269.9 239.3,271.2 235.4,272.9 
	231.8,275.6 228.8,279.6 226.5,284.5 224.8,290 224.2,296.4 225.7,304.3 229.9,313.2 236.9,322.2 245.8,330.5 255.3,337.3 
	263.8,342.8 270.1,347.7 274.8,352.4 278.3,357 278,362 272.4,367.4 262,372.5 249.5,376.4 237.7,379.3 229.5,382.3 226.7,386.6 
	229.7,392.6 237.2,399.5 247.9,406.2 266.6,412.3 293.1,415.1 322.2,412.8 346.8,407.8 362.4,404.7 367.3,407.5 362.7,416.2 
	351,427.9 336.1,439.6 320.7,449.8 308.7,457.8 302.4,464 301.6,469.2 304.1,473.9 306.7,478.5 305.8,483.7 298.4,489.9 
	283.4,496.4 269.6,500 "/>
<line id="SvgjsPolyline1024" class="st0" x1="157.8" y1="499" x2="154.5" y2="500"/>
<path id="SvgjsPolyline1025" class="st0" d="M251.6,263.3"/>
<polyline id="SvgjsPolyline1026" class="st0" points="253,263.2 252.2,266.8 250.1,269.8 247.1,272.4 243.6,274.8 240.2,277.4 
	237.1,280.7 234.8,284.9 233.2,289.9 232.1,295.2 232.2,301.3 234.5,308.4 239.3,316.2 246.6,323.9 255.5,330.7 264.6,336.3 
	272.4,341 277.9,345.5 281.6,349.9 283.9,354.6 281.7,359.9 273.8,365.7 261.6,370.8 248.4,374.5 237.7,377.6 232.2,381.3 
	233.1,386.7 240.4,393.3 252.2,400 267.4,405.6 290.3,408.8 319.3,406.9 347.7,400 368.8,392.8 379.3,391.1 378.9,397.8 369,410.6 
	353.3,425.2 335.7,438.2 318.3,448.8 306.5,456.6 303.4,462.2 308.7,466.3 319.2,469.1 330,471.4 336,474.9 333.1,481 319.2,489.6 
	296.4,498.5 290.4,500 "/>
<path id="SvgjsPolyline1027" class="st0" d="M253,263.2"/>
<polyline id="SvgjsPolyline1028" class="st0" points="253.9,262.5 254,266.5 252.9,270.2 250.9,273.7 248.4,277.1 245.8,280.6 
	243.6,284.5 242.1,289.1 241.3,294.1 241,299.3 241.7,305 244.3,311.3 249.2,317.9 256,324.2 264,329.8 272,334.5 278.6,338.8 
	283.3,343 286.2,347.5 287.8,352.2 284.6,357.8 275.6,363.9 262.8,369.2 250,373.1 240.7,376.5 237.6,380.9 241.6,386.8 
	252.2,393.3 267.2,399 285.4,402.8 310.6,402.8 340,396.7 366.4,386.6 383.9,378.9 390.5,379.7 386,390.3 372.4,406.7 353.6,423.3 
	334.2,437 315.6,447.8 304,455.4 303.5,460.5 313.4,463.7 329.8,464.6 346.6,464.3 357.6,465.4 357.9,470.6 345.3,480.7 322,492.4 
	299.7,500 "/>
<path id="SvgjsPolyline1029" class="st0" d="M253.9,262.5"/>
<polyline id="SvgjsPolyline1030" class="st0" points="254.5,261.7 255.3,265.9 255.2,270 254.4,274 253.1,278.1 251.6,282.2 
	250.5,286.7 249.9,291.4 250,296.4 250.3,301.5 251.6,306.9 254.3,312.4 258.8,318 264.8,323.3 271.5,328 278,332.2 283.5,336.3 
	287.4,340.5 290,345 291.3,349.7 287.7,355.6 278.6,362 266.1,367.6 254.2,371.9 246.6,376 245.6,380.8 252,386.7 265,392.4 
	281.9,396.6 301.9,398.2 327.9,395 356.4,385.6 380.3,373.6 394.9,366.2 398.6,369.5 391.7,383.4 375.7,402.6 355.2,420.7 
	334.9,435 315.7,446.1 304.5,453.6 305.6,458.5 318.5,460.8 338.6,460.2 359,457.6 373,456.5 375.4,460.8 363.9,471.8 340.8,485.7 
	311.3,498 302.6,500 "/>
<path id="SvgjsPolyline1031" class="st0" d="M254.5,261.7"/>
<polyline id="SvgjsPolyline1032" class="st0" points="254.9,260.8 256.3,265.1 257.1,269.4 257.4,273.7 257.3,278.1 257,282.6 
	257,287.2 257.4,292 258.2,296.9 259.3,301.9 261,306.9 263.8,311.9 267.8,316.8 272.8,321.4 278.2,325.6 283.5,329.6 288,333.6 
	291.4,337.8 293.9,342.3 295.1,347 291.7,353.1 283,359.8 271.4,365.8 260.8,370.8 254.7,375.3 255.5,380.4 263.8,385.8 
	278.3,390.2 296.4,392.6 317.1,392.1 342.8,386 369.7,374 391.2,360.7 403.5,354 405.6,359.4 397.5,375.8 380.5,397.2 359.4,416.7 
	339,431.7 319.8,443.3 309,451 311.2,455.7 325.6,457.2 347.5,455.1 369.6,450.7 385,448 388.6,451.7 378.1,463.2 355.5,478.8 
	326.4,493.1 302.9,500 "/>
<path id="SvgjsPolyline1033" class="st0" d="M254.9,260.8"/>
<polyline id="SvgjsPolyline1034" class="st0" points="255.2,259.9 257.2,264.2 258.7,268.5 260,272.9 261,277.3 261.9,281.9 
	262.9,286.5 264.2,291.2 265.8,296 267.5,300.7 269.6,305.4 272.4,310 276,314.4 280.1,318.7 284.5,322.7 288.8,326.6 292.6,330.6 
	295.7,334.8 298.2,339.1 299.6,343.9 296.7,350 288.8,357.1 278.3,363.7 269,369.3 264.4,374.2 266.7,379.2 276.4,383.8 
	291.9,386.8 310.4,387.3 331.2,384.5 356.1,376 381.1,361.8 400.4,347.6 411,341.4 412.3,348.3 403.9,366.7 387.1,390 366.3,410.8 
	346.4,426.8 327.7,439.3 317.3,447.4 320.1,451.8 335.2,452.5 357.7,449.1 380.3,443.1 396.1,439.2 400.3,442.4 390.6,454.5 
	368.9,471.4 340.5,487.5 305.8,500 "/>
<polyline id="SvgjsPolyline1035" class="st0" points="464,488.2 477.1,483.7 477.4,490 470.2,500 "/>
<path id="SvgjsPolyline1036" class="st0" d="M255.2,259.9"/>
<polyline id="SvgjsPolyline1037" class="st0" points="255.6,259.1 258,263.3 260.2,267.5 262.3,271.8 264.2,276.1 266.1,280.5 
	268,285 270.1,289.5 272.3,293.9 274.6,298.4 277.2,302.8 280.1,307.1 283.3,311.2 286.9,315.3 290.6,319.2 294.2,323.2 
	297.6,327.1 300.6,331.2 303.4,335.4 305.1,340.1 302.7,346.3 295.6,353.7 286.3,360.9 278.3,367.1 275,372.3 278.5,377 
	289.1,380.6 305.2,382 323.8,380.6 344.2,375.7 368,364.9 391.1,348.8 408.4,333.7 417.7,327.8 418.8,335.8 411.1,355.8 
	395.2,380.7 375.4,403 356.4,420.2 338.5,433.7 328.7,442.4 331.9,446.6 347.2,446.4 369.6,441.5 391.9,434 407.6,428.9 
	412.1,431.8 403.2,444.4 382.7,462.7 355.5,480.6 319.2,496.5 305.5,500 "/>
<polyline id="SvgjsPolyline1038" class="st0" points="432,497.3 462.4,480.9 484.8,467.6 496,463.3 495.3,471.2 483.6,489.2 
	474.2,500 "/>
<path id="SvgjsPolyline1039" class="st0" d="M255.6,259.1"/>
<polyline id="SvgjsPolyline1040" class="st0" points="256,258.3 258.9,262.3 261.7,266.4 264.4,270.4 267.1,274.5 269.7,278.7 
	272.4,282.8 275.2,287 277.9,291.1 280.8,295.2 283.7,299.3 286.7,303.4 289.9,307.4 293.2,311.3 296.6,315.2 299.9,319 
	303.2,322.9 306.3,326.9 309.3,330.9 311.3,335.4 309.5,341.7 303.4,349.6 295.1,357.3 288.2,364 286,369.4 290.4,373.6 
	301.7,376.1 318,375.8 336.5,372.6 356.3,365.7 378.7,352.7 399.8,334.8 415.3,318.8 423.7,312.9 425.1,321.6 418.5,342.8 
	404.2,369.2 386,393.1 368.3,411.6 351.5,426.3 342.4,435.7 345.8,439.7 361.1,438.3 383.1,431.8 404.9,422.7 420.1,416.5 
	424.8,418.9 416.9,432.2 397.9,451.9 372.2,471.7 337.5,490.2 308.9,500 "/>
<polyline id="SvgjsPolyline1041" class="st0" points="423,495.1 455.6,478 484,459 500,447.4 "/>
<line id="SvgjsPolyline1042" class="st0" x1="484" y1="493.2" x2="478.2" y2="500"/>
<path id="SvgjsPolyline1043" class="st0" d="M256,258.3"/>
<polyline id="SvgjsPolyline1044" class="st0" points="256.6,257.6 259.9,261.3 263.1,265.1 266.4,268.9 269.6,272.7 272.9,276.5 
	276.1,280.3 279.4,284 282.6,287.8 285.9,291.6 289.2,295.4 292.5,299.2 295.8,302.9 299.1,306.7 302.5,310.4 305.9,314.1 
	309.2,317.9 312.5,321.6 315.8,325.4 318.2,329.7 317.1,336.1 311.8,344.3 304.5,352.7 298.5,359.8 297.1,365.4 302.3,369.1 
	314,370.3 330.2,368.4 348.3,363.3 367.3,354.5 388.2,339.5 407.4,319.8 421,302.7 428.7,296.5 430.6,305.5 425.8,327.6 
	413.7,355.3 397.6,380.8 381.5,400.7 366.1,416.8 357.8,427 361.6,430.6 376.6,427.9 398,419.5 418.9,408.6 433.6,401.2 
	438.4,403.2 431.7,417.1 414.4,438.4 390.6,460.2 357.8,481.5 321,497.9 314.8,500 "/>
<polyline id="SvgjsPolyline1045" class="st0" points="412.1,493.9 446.6,476.6 477.3,456.4 500,437.7 "/>
<line id="SvgjsPolyline1046" class="st0" x1="488.1" y1="494.1" x2="484.4" y2="500"/>
<path id="SvgjsPolyline1047" class="st0" d="M256.6,257.6"/>
<polyline id="SvgjsPolyline1048" class="st0" points="257.3,256.9 260.9,260.3 264.6,263.7 268.2,267.2 271.8,270.6 275.4,274 
	279.1,277.5 282.7,280.9 286.3,284.3 290,287.8 293.6,291.2 297.3,294.6 300.9,298 304.6,301.5 308.2,304.9 311.9,308.3 
	315.5,311.7 319.1,315.2 322.8,318.6 325.6,322.6 325.1,329.1 320.7,337.8 314.3,346.8 309.1,354.5 308.3,360.1 313.9,363.3 
	325.6,363.3 341.7,359.8 359.1,352.9 377.2,342.3 396.5,325.2 413.5,303.8 425.4,285.5 432.4,278.7 435.2,287.5 432.5,310 
	423.2,338.9 409.6,365.7 395.6,387.2 381.7,404.7 374.5,415.6 378.6,418.9 393.3,414.7 413.8,404.3 433.5,391.4 447.4,382.5 
	452.4,384.1 447.1,398.6 432,421.5 410.4,445.5 379.8,469.9 344.9,489.8 322.1,500 "/>
<polyline id="SvgjsPolyline1049" class="st0" points="395,495.8 435.6,476.5 468.2,455.8 496.7,432.6 500,429.4 "/>
<path id="SvgjsPolyline1050" class="st0" d="M257.3,256.9"/>
<polyline id="SvgjsPolyline1051" class="st0" points="258.1,256.1 262,259.1 265.9,262.2 269.8,265.3 273.7,268.4 277.5,271.5 
	281.4,274.6 285.3,277.7 289.2,280.8 293.1,283.9 297.1,286.9 301.1,289.9 305.3,292.9 309.4,295.8 313.6,298.6 317.8,301.5 
	321.9,304.4 326,307.3 330,310.3 333.2,314 333.4,320.6 329.9,329.8 324.3,339.5 319.8,347.8 319.4,353.6 325,356.2 336.6,355.2 
	352.2,350.1 368.8,341.5 385.7,329.2 403.3,310.1 418.2,286.9 428.2,267.3 434.4,259.4 438.2,267.6 438.1,290 432,319.5 
	421.4,347.7 409.8,370.5 398,389.5 391.9,401.1 396.4,403.9 410.6,398.2 429.8,385.6 448,370.6 460.8,360.3 466,361.3 462.3,376.2 
	449.7,400.6 430.9,427 403.1,454.6 370.2,478.3 343.3,493.9 335.9,500 "/>
<polyline id="SvgjsPolyline1052" class="st0" points="377.8,496.7 418.9,480 457.3,456.9 487.7,433 500,420.8 "/>
<path id="SvgjsPolyline1053" class="st0" d="M258.1,256.1"/>
<polyline id="SvgjsPolyline1054" class="st0" points="259,255.3 263.2,257.8 267.3,260.5 271.2,263.2 275.1,266 279,268.9 
	283,271.8 287,274.6 291.2,277.4 295.4,280.2 299.7,282.8 304.2,285.3 308.9,287.5 313.7,289.6 318.6,291.6 323.4,293.5 
	328.1,295.6 332.6,297.9 337,300.4 340.7,303.7 341.5,310.2 338.9,320 334.2,330.6 330.3,339.6 330.1,345.7 335.7,347.9 
	346.8,345.9 361.7,339.4 377.4,329.2 393,315.2 408.6,294.4 421.1,269.4 429.1,248.2 434.5,239 439.2,245.9 441.7,267.6 
	439.3,297.3 432.3,326.4 423.6,350.4 414.1,370.7 409.5,383 414.3,385.3 427.7,377.8 445.2,363 461.4,345.9 472.9,334.1 
	478.2,334.5 476.3,349.8 466.8,375.6 451.2,404 426.7,435 396.4,462.8 370.7,481.9 360.8,491.4 372.5,492 402.7,482.2 441.4,461.7 
	477,435.1 500,413 "/>
<path id="SvgjsPolyline1055" class="st0" d="M259,255.3"/>
<polyline id="SvgjsPolyline1056" class="st0" points="260.1,254.3 264.4,256.3 268.5,258.6 272.4,261 276.2,263.7 280,266.5 
	284,269.2 288.1,271.9 292.4,274.4 296.8,276.8 301.4,279 306.4,280.8 311.7,282.2 317.3,283.1 323,283.8 328.5,284.4 333.8,285.4 
	338.7,286.8 343.4,288.6 347.5,291.4 349.1,298 347.5,308.3 343.8,319.8 340.4,329.8 340.4,336.3 345.6,338.4 356.2,335.5 
	370.1,327.7 384.7,316.1 398.8,300.6 412.3,278.1 422.3,251.4 428,228.6 432.2,217.7 437.6,222.8 442.9,243 444.4,272 441.4,301.5 
	436,326.5 429.3,347.9 426.4,360.7 431.4,362.4 443.6,353.3 458.9,336.3 472.8,317.3 482.5,304.2 487.8,303.9 487.9,319.4 
	481.9,346.2 470.1,376.6 449.6,410.8 422.5,442.8 398.3,465.6 388.4,477 398.8,477 426.7,464.7 462.3,440.8 494.7,411 500,404.8 "/>
<path id="SvgjsPolyline1057" class="st0" d="M260.1,254.3"/>
<polyline id="SvgjsPolyline1058" class="st0" points="261.2,253 265.5,254.6 269.5,256.5 273.2,258.8 276.8,261.5 280.5,264.3 
	284.3,267 288.4,269.5 292.8,271.8 297.4,274 302.3,275.8 307.8,276.8 313.8,277 320.1,276.4 326.5,275.3 332.7,274.3 338.4,273.7 
	343.7,274 348.7,275 353.1,277.1 355.6,283.6 355.3,294.4 352.8,306.9 350.1,318 350.2,325.2 355,327.4 364.6,323.9 377.4,315.1 
	390.6,302.3 403,285.6 414.3,261.7 421.6,233.5 424.6,209 427.3,196 433,198.7 440.6,216.3 446.3,243.7 447.7,272.8 446.1,298.2 
	442.7,320.4 441.7,333.6 446.7,334.7 457.3,324.2 469.9,305.7 480.7,285.4 488.4,271.4 493.6,270.7 495.8,286.1 493.5,313.5 
	486.1,345.2 470.3,382.2 447.3,418.2 425.5,444.8 415.9,458.3 424.8,458 449.9,443.5 481.8,416.8 500,396.1 "/>
<path id="SvgjsPolyline1059" class="st0" d="M261.2,253"/>
<polyline id="SvgjsPolyline1060" class="st0" points="262.2,251.5 266.4,252.7 270.2,254.4 273.7,256.8 276.9,259.6 280.3,262.5 
	283.9,265.3 288,267.8 292.5,269.9 297.3,271.9 302.5,273.1 308.5,273.3 315.2,272.1 322.2,269.7 329.1,266.6 335.7,263.4 
	341.6,260.9 347.1,259.8 352.2,259.8 357,261.1 360.4,267.1 361.7,278.1 360.8,291.5 359.2,303.7 359.4,311.9 363.7,314.5 
	372.2,310.9 383.5,301.6 395.1,288 405.7,270.6 414.6,245.8 419,216.3 419.3,190.2 419.8,174.9 424.9,174.4 434.3,188.4 
	443.7,212.7 449.8,240 452.5,265 452.8,287.3 454,300.7 459,301.6 467.4,290.6 476.6,271.7 484.1,251.5 489.8,237.7 494.8,237.1 
	499.1,252.2 500,268.7 500,286 "/>
<polyline id="SvgjsPolyline1061" class="st0" points="497.7,311.5 487.3,350.2 469.5,389.2 451.2,419.1 442.8,434.5 450.6,433.9 
	472.7,417.5 500,388.4 "/>
<path id="SvgjsPolyline1062" class="st0" d="M262.2,251.5"/>
<polyline id="SvgjsPolyline1063" class="st0" points="262.9,249.8 266.9,250.7 270.4,252.5 273.5,255.1 276.4,258.1 279.4,261.3 
	282.8,264.3 286.9,266.8 291.5,268.8 296.4,270.4 302,271.2 308.5,270.5 315.8,267.8 323.4,263.4 330.6,257.9 337.1,252.3 
	343,247.7 348.3,244.9 353.4,243.6 358.4,243.7 362.8,248.8 365.9,259.4 367.1,273.2 367.1,286.3 368,295.6 371.7,299.1 
	378.9,296.1 388.4,286.9 398.2,273.3 406.8,256 413.4,231.2 415.2,201.1 412.5,173.6 410.2,155.8 413.6,151.4 423.3,160.5 
	435.6,180 446,204 453.2,227.2 457.7,248.6 461.3,261.8 466.2,263.1 472.3,253.1 478.2,235.9 482.6,217.8 486.5,206 491.6,206.2 
	497.8,221 500,232.5 "/>
<polyline id="SvgjsPolyline1064" class="st0" points="499.4,317 487.6,357 474.2,388.4 468.3,404.6 475.8,403.2 494.8,384.5 
	500,377.2 "/>
<path id="SvgjsPolyline1065" class="st0" d="M262.9,249.8"/>
<polyline id="SvgjsPolyline1066" class="st0" points="263.2,248 267,248.9 270.1,251 272.8,253.9 275.2,257.3 277.9,260.7 
	281.1,263.8 285.2,266.3 290,268.1 295.2,269.5 301.1,269.8 308.1,268.2 315.9,264.1 323.8,257.7 331,249.9 337.1,241.8 
	342.4,235.1 347.3,230.4 352.1,227.6 356.9,226.2 362.1,229.5 367,238.6 370.7,251.7 373,265.2 375,275.6 378.5,280.5 384.4,278.9 
	392,270.9 399.8,258.4 406.6,242.4 411.1,218.7 410.7,189.1 405.4,160.7 400.1,140.4 400.3,131.6 408.4,134.9 421.4,148 
	434.9,166.8 446.1,186.6 454.7,205.7 461,218.2 466.2,220.7 470.7,213.7 474.2,200.8 476.9,187.4 480.2,179.4 485.8,181.5 
	493.6,195.8 500,216.3 "/>
<polyline id="SvgjsPolyline1067" class="st0" points="493.3,353.4 491.1,368 498.9,364.3 500,362.8 "/>
<path id="SvgjsPolyline1068" class="st0" d="M263.2,248"/>
<polyline id="SvgjsPolyline1069" class="st0" points="263.1,246.6 266.5,247.6 269.2,250 271.5,253.3 273.5,257 275.9,260.6 
	279.1,263.7 283.4,266 288.5,267.6 294,268.6 300.3,268.3 307.7,265.9 315.8,260.6 323.6,252.7 330.4,242.9 335.9,232.9 
	340.3,224.3 344.4,217.9 348.5,213.3 352.9,209.9 358.1,210.6 364.2,216.9 370.3,227.7 375.2,240.3 379.1,251.3 383,258.1 
	387.9,258.9 393.8,253.4 399.9,243.4 405.1,230.1 408.3,209.1 406.7,181.3 399.8,152.8 391.5,130.2 387.7,117.1 391.7,114.2 
	402.8,120.2 416.9,132.5 430.6,147.5 442.4,162.8 451.4,174 457.7,178.3 462.3,176 465.7,169.7 468.9,163.1 473.3,160.6 480,165.4 
	488.8,179.3 497.7,200.6 500,209 "/>
<path id="SvgjsPolyline1070" class="st0" d="M263.1,246.6"/>
<polyline id="SvgjsPolyline1071" class="st0" points="262.4,245.8 265.4,247.1 267.8,249.8 269.7,253.2 271.5,256.9 273.9,260.4 
	277.4,263.3 282,265.4 287.6,266.5 293.5,266.9 300.2,266 307.7,262.7 315.6,256.6 323.1,247.9 329.2,237.3 333.9,226.4 
	337.5,216.5 340.7,208.6 343.9,202.1 347.1,196.5 351.5,193.9 357.5,196 364.8,202.8 372,212.8 378.3,223.6 383.6,232.2 
	388.6,236.2 393.6,234.6 398.5,228.5 402.9,219.4 405.5,202.7 403.9,178.2 396.9,150.7 386.9,126.4 378.9,109.3 377.4,100.7 
	383.8,100 395.7,105.6 409.6,115.2 422.8,125.9 433.8,135.1 442.4,141.2 449.3,144.2 455.3,145.4 461.2,146.7 468.1,150.5 
	476.2,158.6 485.3,172 494.3,189.8 500,204.9 "/>
<polyline id="SvgjsPolyline1072" class="st0" points="486.1,19.4 474.8,0.4 474.8,0 "/>
<line id="SvgjsPolyline1073" class="st0" x1="495.9" y1="0.6" x2="500" y2="3.1"/>
<path id="SvgjsPolyline1074" class="st0" d="M262.4,245.8"/>
<polyline id="SvgjsPolyline1075" class="st0" points="261.2,245.7 263.9,247.2 266,250 267.7,253.3 269.7,256.7 272.5,259.9 
	276.5,262.3 281.8,263.7 287.9,264.1 294.3,263.5 301.1,261.6 308.4,257.6 315.6,251.4 322.2,242.9 327.7,232.9 331.8,222.3 
	334.9,212.2 337.4,203.2 339.5,195 341.3,187 343.6,180.8 347.7,178 354.2,179.5 362.4,185.4 371,194.5 378.8,204.3 385.2,211.9 
	390.7,215 395.6,213.8 400,210 403,199.1 402.7,179.7 397.3,154.8 387.4,129.6 376.6,109 369.7,95.3 369.9,88.9 377.5,89 
	389.5,93.6 401.9,99.8 413.9,106.6 425.1,113.9 435.8,121.4 446,129.5 455.8,138.2 465.4,148.1 474.7,159.2 483.6,171.8 
	491.9,185.6 499.4,200.9 500,202.4 "/>
<polyline id="SvgjsPolyline1076" class="st0" points="493,45.8 473.6,15.5 461.3,0 "/>
<path id="SvgjsPolyline1077" class="st0" d="M261.2,245.7"/>
<polyline id="SvgjsPolyline1078" class="st0" points="259.7,246.2 262.1,247.8 264,250.3 265.9,253.2 268.4,256.2 272.1,258.7 
	277,260.3 283.1,260.5 289.7,259.4 296.3,257.3 303,254.1 309.4,249.6 315.6,243.9 321.1,237 325.9,229 329.9,220.3 332.9,211.1 
	335,201.5 336.3,191.6 336.5,181.4 336.1,171.6 336.7,163.9 340,160.1 347.1,161.3 357.1,167.5 367.9,177.3 377.5,187.8 
	385.1,195.5 391.2,199.4 396.7,201.3 400.9,197.2 402.5,184.3 399.9,163.7 392.2,139.3 381.1,116.1 370.6,98.1 365.4,87 368,82.7 
	376.7,83.5 386.9,86.1 398.5,90.7 411.6,98.2 425.7,108.6 439.8,121.5 452.9,135.8 464.4,150.1 474.2,163.1 482.5,174.1 
	489.8,183.7 496.6,193.2 500,197.7 "/>
<polyline id="SvgjsPolyline1079" class="st0" points="494,76.3 489.5,60.6 483.8,44.7 470.8,21.9 453.7,0 "/>
<path id="SvgjsPolyline1080" class="st0" d="M259.7,246.2"/>
<polyline id="SvgjsPolyline1081" class="st0" points="258,247.1 260.2,248.3 262.3,250.4 264.7,252.8 268.1,255 272.7,256.5 
	278.7,256.6 285.3,254.9 292.1,251.8 298.5,247.6 304.4,242.9 309.7,238.3 314.7,233.9 319.4,229.6 323.9,224.9 328,219.1 
	331.3,211.6 333.5,202.1 334.1,190.8 332.9,178.6 329.7,165.7 325.9,153.9 324.7,145.8 328.7,142.8 338.7,145.7 352.2,154.2 
	365.8,166 376.9,177.2 385.5,185.6 392.9,192.7 398.7,195.1 402.3,189.4 402.7,174.7 398.4,153.2 389.4,129.3 378.4,108 370.1,93 
	368.9,85.3 374.3,83.4 381.9,83.4 391.9,86.2 405.1,92.9 420.5,104.1 436.3,118.9 450.8,135.4 463,151.1 472.6,163.8 480.3,172.3 
	486.7,177.6 492.8,181.9 498.1,183 500,180.5 "/>
<polyline id="SvgjsPolyline1082" class="st0" points="497.1,116.6 488.6,89.7 479.6,66.7 473.5,50.3 471.1,39.6 467.7,28.3 
	456.2,9.5 448.1,0 "/>
<path id="SvgjsPolyline1083" class="st0" d="M258,247.1"/>
<polyline id="SvgjsPolyline1084" class="st0" points="256.3,247.7 258.6,248.6 261.1,250.1 264.2,251.9 268.5,253.2 274.2,253.1 
	280.8,251 287.4,246.8 293.5,241.2 298.7,234.8 303.2,228.8 307.5,224.5 312,221.9 316.7,220.7 321.5,219.6 325.9,217.1 
	329.7,211.6 331.9,202.5 332,190.4 329.8,176.7 324.1,161.5 316.2,147 310.1,136.2 310.4,130.4 319.3,130.5 334.8,137 352,148.4 
	366.8,161.2 378.4,172.4 388.1,183.2 395.9,191 401.3,191.8 404,183.5 403,166.5 397.2,144.2 388,121.8 379.5,104.3 376.4,94.1 
	379.6,90.3 385,88.6 393,89.5 404.4,94.6 418.4,104 433.2,116.9 447,131.3 458.6,144.6 467.8,154.4 474.8,159.6 480.6,161.2 
	485.8,161.3 489.9,157.8 492,148.1 491.2,132 487,111 479.8,87.9 471.2,66.4 464.1,49.3 460.8,37.8 461.1,30.8 460.2,22.7 
	450.9,6.7 445.2,0 "/>
<path id="SvgjsPolyline1085" class="st0" d="M256.3,247.7"/>
<polyline id="SvgjsPolyline1086" class="st0" points="255.2,247.9 257.7,248.4 260.6,249.4 264.4,250.4 269.5,250.4 275.6,248.4 
	282,243.8 287.7,237 292.1,229.4 295.4,221.3 298.2,214.6 301.8,210.6 306.7,209.6 312.3,210.8 318,212.6 323.2,212.7 327.2,209 
	329.4,200.5 328.9,187.9 325.5,173.5 317.8,157.2 306.7,141.7 296.9,129.9 294.3,123 301.9,121.3 318.2,125.5 338.1,135.4 
	355.9,148 370,160 382,172.3 391.7,183.3 398.7,188.9 403.1,186 404.2,173.9 401.2,154.9 394.6,133.7 387.5,115.7 384.4,104.6 
	386.7,99.8 390.8,96.9 396.8,96 405.2,98.1 415.7,103.2 427.1,110.6 438.2,118.8 448,126.1 456,130.8 462.2,132.2 467.1,131 
	471.6,128.6 474.6,123.5 475.6,114.2 474.1,101.1 470.2,85.4 465,69.2 460,54.7 456.8,43.3 456.6,35.7 458.9,30.9 459.8,24.6 
	452.3,10.2 444.1,0 "/>
<line id="SvgjsPolyline1087" class="st0" x1="499.9" y1="0" x2="500" y2="0.1"/>
<line id="SvgjsPolyline1088" class="st0" x1="499.9" y1="0" x2="500" y2="0.1"/>
<path id="SvgjsPolyline1089" class="st0" d="M255.2,247.9"/>
<polyline id="SvgjsPolyline1090" class="st0" points="254.8,247.6 257.4,247.7 260.7,248.1 264.9,248.2 270.3,246.9 276.3,242.9 
	281.7,236.1 285.5,227.5 287.8,218.6 288.9,209.7 290.2,202.7 293.4,199 299.1,198.6 306.1,200.9 313.1,204 319.1,205.5 
	323.3,202.9 325,194.8 323.5,182.2 318.9,167.9 309.4,151.9 296.3,137 284.5,125.8 280.3,118.9 287.2,116.1 303.9,118.5 
	325.1,126.4 344.7,137.4 360.4,148.4 374.1,160.4 385.6,172.2 394.1,180.1 399.7,180.8 402,172.8 400.7,157.5 396.1,139.1 
	390.7,122.5 388.4,111.7 390.7,106.7 394.4,103.3 398.5,100.5 403.5,98.7 409.3,97.8 415.5,97.5 421.7,97.4 427.6,97 432.9,95.7 
	437.5,93.5 441.4,90.5 445.2,87.1 448.3,82.9 450.4,77.5 451.7,71 452.4,63.8 452.8,56.5 453.6,49.7 455.1,43.9 457.6,39.3 
	461,35.5 462.5,29.9 455.9,15.9 443.9,0 "/>
<line id="SvgjsPolyline1091" class="st0" x1="496.2" y1="0" x2="500" y2="3.8"/>
<line id="SvgjsPolyline1092" class="st0" x1="496.2" y1="0" x2="500" y2="3.8"/>
<path id="SvgjsPolyline1093" class="st0" d="M254.8,247.6"/>
<polyline id="SvgjsPolyline1094" class="st0" points="254.6,247.1 257.3,246.8 260.8,246.5 265.3,245.6 270.6,242.9 275.7,237.2 
	279.5,228.7 281.2,219 281.3,209.6 280.3,200.6 280.2,193.7 283.3,189.9 289.7,189.5 298.2,191.8 306.6,195.3 313.5,197.4 
	317.9,195.2 319,187.4 316.3,175.1 310.2,161.4 299.2,146.4 284.6,132.8 271.7,122.9 266.9,116.5 273.5,113.1 290.4,113.7 
	312.3,119.4 332.9,128.5 349.7,137.9 364.6,148.6 377.7,160.1 387.9,169.1 394.7,172.3 398.1,167.7 398.1,156 395.1,140.6 
	391.3,126.1 390,116.2 392.5,111.3 395.9,107.6 398.5,103 399.9,97 400.2,89.9 399.7,82 398.9,74.1 398.5,66.8 399,60.6 400.9,55.6 
	403.8,51.5 407.1,47.8 411.6,45 417.6,43.7 425,43.8 433.2,44.9 441.4,46.3 449,47.1 455.4,46.7 460.3,44.8 464.1,41.6 465.9,36 
	459.7,22 444.3,0.7 443.7,0 "/>
<line id="SvgjsPolyline1095" class="st0" x1="499" y1="5.7" x2="500" y2="6.7"/>
<path id="SvgjsPolyline1096" class="st0" d="M254.6,247.1"/>
<polyline id="SvgjsPolyline1097" class="st0" points="254.1,246.9 257,246.1 260.6,245.2 265.1,243.4 270,239.4 274.1,232.3 
	276.1,222.8 275.8,212.6 274,203.3 271.2,194.6 269.9,187.9 272.6,183.9 279.6,182.7 289,184.2 298.5,187 306.1,188.7 310.5,186.3 
	310.7,178.6 306.4,166.8 298.6,153.9 285.8,140.6 269.9,129.1 256.4,120.9 251.6,115.2 258.5,111.2 276,110.2 298.7,113.8 
	320.3,120.8 338,128.5 354.1,137.9 369,149.1 381.3,159.6 390.1,165.8 395.3,165.3 397.3,157.9 396.4,145.9 394.4,133.4 394,124.1 
	396.5,119.1 399.3,114.6 400.1,107.5 397.8,97.1 392.2,83.9 384.2,69.6 375.3,56.1 367.8,44.6 363.4,35.8 362.9,29.7 365.4,25.3 
	369.1,21.8 375.8,20.1 386.8,21.3 401.4,25.8 417.8,32.8 434,41 448,48.5 458.8,53.2 466.1,54.3 471,52.4 473.6,47.7 468.1,33.5 
	453,10.8 443.7,0 "/>
<line id="SvgjsPolyline1098" class="st0" x1="494.3" y1="2.9" x2="500" y2="8.5"/>
<path id="SvgjsPolyline1099" class="st0" d="M254.1,246.9"/>
<polyline id="SvgjsPolyline1100" class="st0" points="253.4,247.1 256.3,245.8 260,244.4 264.3,241.9 268.8,237.1 272.1,229.4 
	272.8,219.5 271.2,209.4 268.2,200.3 264.3,192.1 262.1,185.5 264,181 270.3,178.7 279.4,178.5 288.8,179.6 296.2,179.7 
	299.8,176.4 298.6,168.6 292.3,157.6 282.3,146.2 267.7,135.2 250.8,126.6 237.6,120.7 233.5,115.7 241.6,110.9 260.4,108 
	284.4,109.4 307,114.4 325.4,120.4 342.6,128.3 359.6,139.3 374.8,151.7 386.4,161.9 394.1,166.4 398.4,163.8 399.8,155.4 
	399.6,144.6 399.7,135.3 401.6,129.1 403.4,122.9 402,112.5 395.6,97.1 384.1,78.5 369.1,59.7 353.4,43.4 340.8,30.8 333.9,22 
	333.3,16.3 337.1,12.6 342.8,9.6 352.5,8.8 367.8,11.4 387.8,18 409.9,28.3 431.3,40.7 449.5,52.6 463.4,61.6 473.1,66 479.8,66.8 
	484.1,64.2 480,50.3 464.8,24.9 444.4,0 "/>
<line id="SvgjsPolyline1101" class="st0" x1="492.1" y1="0" x2="500" y2="6.6"/>
<line id="SvgjsPolyline1102" class="st0" x1="492.1" y1="0" x2="500" y2="6.6"/>
<path id="SvgjsPolyline1103" class="st0" d="M253.4,247.1"/>
<polyline id="SvgjsPolyline1104" class="st0" points="252.6,247.6 255.5,245.8 259.2,244 263.4,241 267.5,236 270.2,228.2 
	270.5,218.6 268.3,208.8 264.9,199.9 260.6,191.9 257.6,185.3 258.2,180.4 263,177 270.4,175.1 278.3,173.9 284.3,172 286.4,167.5 
	283.3,159.7 274.8,150 262.8,140.6 246.7,132.6 229.5,127.2 217,123.5 214.4,118.8 223.9,112.7 244.1,107.5 269.4,106.5 
	293.1,109.3 312.1,113.5 330.2,119.8 349.7,130.6 368.1,144.8 382.9,158.7 393.2,168 399.5,169.7 402.5,164.2 403.2,154.3 
	403.2,144 404.1,135.7 404.2,126.8 399.9,112.5 389.2,92.6 372.1,70.4 351.4,50 331.9,33.9 318.1,22.7 312.5,15.4 314.9,10.9 
	322.1,8.2 331.1,6.4 343.7,6.4 361.2,9.6 382.8,16.6 406,27.3 428.5,40.3 448,53.4 463.6,64.3 475.3,71.7 484.4,76.1 491,77.1 
	488.4,64.3 473,36.4 444.9,1.2 443.6,0 "/>
<line id="SvgjsPolyline1105" class="st0" x1="497.9" y1="0" x2="500" y2="1.7"/>
<line id="SvgjsPolyline1106" class="st0" x1="497.9" y1="0" x2="500" y2="1.7"/>
<path id="SvgjsPolyline1107" class="st0" d="M252.6,247.6"/>
<polyline id="SvgjsPolyline1108" class="st0" points="252,247.9 254.9,245.8 258.4,243.5 262.4,240.4 266.2,235.4 268.7,228.1 
	268.9,218.9 266.9,209.5 263.5,200.8 259,192.9 255.5,186.2 254.9,180.9 257.7,176.7 262.8,173.4 268.4,170.5 272.3,166.8 
	272.3,161.4 267,154 256.7,145.9 243.1,138.8 226.2,133.9 209.2,131.4 197.7,129.3 196.3,124.6 206.9,116.6 228.1,108.9 
	254.4,105.2 278.7,105.7 298.2,107.9 317.1,112.7 338.8,122.6 360.6,137.6 378.6,154.2 391.1,166.7 398.7,171.3 402.3,167.1 
	402.8,156.7 401.8,144.5 400.8,133.3 398.4,121.3 390.4,103.5 374.5,81 352.1,58.2 327.9,39.4 308,26.2 297.2,17.6 296.8,12.4 
	304.5,9.4 316.4,8 329.4,7.5 344.3,8.5 361.5,11.6 380.6,17.2 400.6,25.1 420.1,34.7 438.1,45 454,55 467.7,64 479.9,72.1 
	489.3,77.2 488.2,66.7 472.1,37.7 440.5,0 "/>
<path id="SvgjsPolyline1109" class="st0" d="M252,247.9"/>
<polyline id="SvgjsPolyline1110" class="st0" points="251.7,248 254.4,245.4 257.7,242.9 261.3,239.7 264.8,234.9 267.2,228.1 
	267.6,219.7 265.9,210.7 262.6,202.2 258.2,194.2 254.2,187.5 252.6,181.9 253.6,177.1 256.6,172.9 259.9,168.9 261.6,164.2 
	259.5,158.4 252.6,151.7 240.9,145.2 226.4,140.4 209.1,138 192.5,137.9 181.8,137 180.9,132 191.6,122.3 212.9,112 239.4,105.4 
	264.1,103.5 283.8,103.8 303.3,106.7 326.9,115.2 351.5,129.9 372.2,147.1 386.5,160.7 394.7,165.9 398,161.2 397.1,149.1 
	393.7,134.4 389.6,120.5 383.6,105.7 370.4,86.1 348.7,63.8 321.6,43.9 296.3,29.5 279.6,20.3 275.2,14.3 282.3,10.6 296.8,8.9 
	313.7,8.8 330.7,9.8 346.8,11.5 361.7,13.6 375.6,16 388.9,18.6 402.2,22.1 416.1,26.7 430.9,33.2 446.8,41.8 463,52.5 476.1,61 
	476.7,53.5 459.2,26 434.3,0 "/>
<path id="SvgjsPolyline1111" class="st0" d="M251.7,248"/>
<polyline id="SvgjsPolyline1112" class="st0" points="251.5,247.6 254,244.7 256.9,241.9 260.3,238.6 263.4,234.1 265.6,227.8 
	266.1,220 264.5,211.5 261.3,203.2 256.7,195.3 252.5,188.6 250,182.9 249.9,177.9 251.4,173.2 253,168.6 253,163.5 249.6,157.8 
	241.4,151.8 229,146.7 214,143.5 196.6,143.1 180.3,144.8 169.8,145 168.6,139.9 178.6,129 199,116.4 225,107.2 249.4,102.8 
	269,101.2 288.9,102.2 313.8,108.6 340.5,121.5 363.1,137.5 378.6,150.1 386.8,153.8 388.6,147.2 384.8,132.9 377.5,116.1 
	369.1,100.4 358.1,84.5 338.9,65.6 311.4,46.8 281.3,32.5 257.4,23.5 246.2,17.6 249.8,12.9 265.3,9.4 286.5,8.1 308.1,8.7 
	328.5,10.7 345.2,12.6 356.7,12.8 363.8,10.9 368.3,7.7 372.9,4.6 380.3,3.2 392.7,5.1 410.3,11.4 431.4,22.2 449.3,32.3 452,27.9 
	433.3,4.1 428.4,0 "/>
<path id="SvgjsPolyline1113" class="st0" d="M251.5,247.6"/>
<polyline id="SvgjsPolyline1114" class="st0" points="251.4,246.8 253.5,243.6 256.1,240.6 259,237.3 261.8,232.9 263.7,227 
	263.9,219.7 262.2,211.5 258.8,203.5 253.9,195.9 249.3,189.4 246.4,183.7 245.6,178.7 246.4,173.8 247.3,169 246.6,164 
	242.4,158.5 233.7,153.1 220.9,149 205.7,147 188.3,148.1 171.9,151.2 161.1,152.5 159.1,147.8 167.7,136.3 186.4,122 211,110.4 
	234.7,103.6 254,100.1 274,99.1 299.5,103 327.4,113.3 351.2,126.6 367,136.6 374.2,137.6 373.3,128.5 365.2,112.5 352.8,95 
	339.4,79.4 323,64.6 298,49.1 266,36.4 235,28.9 214.1,24.8 209.1,20.2 220.4,14.3 243.3,9.2 270.3,6.8 295.8,6.9 319,8.8 
	335.7,10.1 343.6,8.1 343.5,2.6 341.8,0 "/>
<path id="SvgjsPolyline1115" class="st0" d="M251.4,246.8"/>
<polyline id="SvgjsPolyline1116" class="st0" points="251.2,245.7 252.8,242.3 254.9,239.1 257.4,235.6 259.8,231.3 261.2,225.6 
	261.1,218.6 258.9,210.9 254.8,203.2 249.4,196 244.4,189.9 241.3,184.6 240.4,179.6 241.2,174.8 242.1,170 241.4,165 237.2,159.8 
	228.4,154.9 215.5,151.5 200.3,150.3 182.8,152.4 166.2,156.7 154.8,159.2 151.7,155.4 158.3,144 174.8,128.6 197.6,114.9 
	220.3,105.9 239.1,100.4 258.8,97.4 284.4,98.8 312.6,105.8 336.6,115.7 351.9,122.3 357.2,120.5 352.5,109.5 339.4,93.1 
	321.6,76.8 303.4,63.2 282.2,51.5 252.8,41.5 218.5,36.1 188.3,35.3 171,34.4 171,29.2 187.8,20.1 216,11.3 247.2,6 275.4,4.2 
	300.7,4.7 317.2,4.6 321.7,0.9 320.9,0 "/>
<path id="SvgjsPolyline1117" class="st0" d="M251.2,245.7"/>
<polyline id="SvgjsPolyline1118" class="st0" points="250.5,244.5 251.6,240.9 253.4,237.6 255.4,234 257.3,229.6 258.2,224 
	257.4,217.3 254.5,209.9 249.6,202.7 243.4,196.3 237.9,190.8 234.7,185.8 234.1,180.9 235.4,176.1 237,171.2 236.8,166.3 
	233,161.3 224.4,156.9 211.5,154 196.3,153.4 178.6,156.3 161.8,161.8 149.8,165.7 145.4,163 150.1,152.1 164.2,136 184.8,120.6 
	206.1,109.5 224.2,102.2 243.4,97.3 268.7,96 296.5,99.7 320,106.1 334.2,109.5 336.9,105.3 328.1,93.5 310,78.4 287.5,64.9 
	265.5,54.8 241.1,47.3 209.3,43.6 174.5,45.5 146.1,50.4 131.7,51.6 134.6,44.6 154.1,31.1 184.9,17.3 218.2,7.8 247.8,2.7 
	274.2,0.6 279.5,0 "/>
<path id="SvgjsPolyline1119" class="st0" d="M250.5,244.5"/>
<polyline id="SvgjsPolyline1120" class="st0" points="249.6,243.5 250.2,239.8 251.5,236.3 253.1,232.6 254.4,228.1 254.6,222.6 
	253,216.1 249.2,209.2 243.3,202.7 236.4,197.1 230.5,192.3 227.2,187.7 227.1,182.9 229.1,177.8 231.5,172.8 232.2,167.9 
	229,163.1 220.6,159 207.8,156.6 192.6,156.6 174.9,160.4 157.8,167 145.2,172.3 139.7,170.9 142.6,160.7 154.3,144.4 172.7,127.6 
	192.4,114.6 209.6,105.6 228.1,98.7 252.7,94.8 279.8,95.4 302.4,98.5 315,99.1 314.9,93.5 302.3,82.2 279.9,69.6 254,59.9 
	229.6,53.9 203.5,51.1 171,53.5 137.2,61.8 110.9,71.4 98.5,74.1 102.2,65.3 121.7,47.4 152.4,28.2 185.8,13.7 215.5,4.6 237.9,0 
	"/>
<path id="SvgjsPolyline1121" class="st0" d="M249.6,243.5"/>
<polyline id="SvgjsPolyline1122" class="st0" points="248.4,242.8 248.5,239 249.4,235.4 250.5,231.5 251.2,227 250.7,221.5 
	248.2,215.3 243.4,209.1 236.7,203.4 229,198.9 222.7,194.9 219.5,190.7 219.8,185.6 222.5,180.2 225.7,174.8 227.2,169.8 
	224.5,165.1 216.4,161.3 203.7,159.5 188.5,160.3 170.9,164.9 153.7,172.8 140.8,179.5 134.5,179.5 135.7,170.2 145.2,153.6 
	161.2,135.7 179.2,121 195.3,110.3 213.1,101.7 236.7,95.3 262.9,92.9 284.3,93.1 295.2,91.7 292.7,85.4 276.8,75.5 251.3,66.2 
	223.2,60.7 197.7,58.8 171,60.4 139.1,68.3 107.1,82.1 83.1,95.6 71.9,99.7 75.1,89.5 92.7,68 121.3,43.8 153,24.4 181.7,11.2 
	207.6,2 212.4,0 "/>
<path id="SvgjsPolyline1123" class="st0" d="M248.4,242.8"/>
<polyline id="SvgjsPolyline1124" class="st0" points="247.2,242.4 246.8,238.7 247.2,235 247.8,231 247.9,226.4 246.7,221.1 
	243.3,215.3 237.7,209.8 230.2,205.1 221.9,201.7 215.3,198.6 212.2,194.6 212.6,189.3 215.8,183.2 219.7,177.4 221.7,172.1 
	219.5,167.4 211.6,164.1 198.9,162.9 183.8,164.5 166.4,170.3 149.3,179.5 136.5,187.7 129.6,189 129.4,180.4 136.7,163.9 
	150.5,144.9 166.7,128.7 181.7,116.5 198.4,106.1 221,97.4 246,92.3 266.3,90 275.7,87 271,80.8 252.6,72.9 225,67.2 195.8,65.9 
	170,67.8 143.7,73.4 113.1,85.9 83.5,104.3 61.9,121.1 51.5,126.6 53.5,115.6 68.2,91.4 93.5,63.2 122.5,39.4 149.3,22.2 173.9,9.5 
	187.7,1.5 186.8,0 "/>
<polyline id="SvgjsPolyline1125" class="st0" points="112.1,5.5 93.3,9.9 89,6.6 95.7,0 "/>
<path id="SvgjsPolyline1126" class="st0" d="M247.2,242.4"/>
<polyline id="SvgjsPolyline1127" class="st0" points="245.9,242.4 245.1,238.7 245.1,235 245.2,231 244.8,226.4 242.8,221.3 
	238.7,216 232.4,211.3 224.3,207.7 215.6,205.3 208.8,203 205.6,199.3 206,193.6 209.3,187 213.5,180.5 215.8,174.8 213.8,170.3 
	206,167.4 193.3,167.1 178.4,169.7 161.3,176.7 144.7,187.3 132.2,196.9 125,199.5 123.8,191.6 129.1,175 140.7,155.2 155,137.6 
	168.7,124 184.3,112 205.6,101.2 229.5,93.5 248.7,89.1 256.7,84.9 250.3,79.2 230.1,73.6 201.4,71.6 171.9,74.1 146.4,79.5 
	121,88.5 92.3,105.1 65.3,127.3 46.1,146.8 36.6,153.5 37.2,142.3 48.7,116.2 70.1,84.8 96,57.3 120.4,36.8 143.2,21 155.8,11.2 
	152.4,7 134.2,8.4 107.4,15.4 80.9,25.3 62.7,32.2 58,29.5 69.3,15.1 87.3,0 "/>
<polyline id="SvgjsPolyline1128" class="st0" points="18.3,3.9 11.8,2.9 13.9,0 "/>
<path id="SvgjsPolyline1129" class="st0" d="M245.9,242.4"/>
<polyline id="SvgjsPolyline1130" class="st0" points="244.9,242.7 243.6,239.1 243.2,235.4 242.9,231.4 241.9,226.9 239.3,222.1 
	234.6,217.3 227.7,213.4 219.2,210.8 210.3,209.5 203.4,208 200,204.5 200.2,198.6 203.2,191.4 207.3,184.3 209.5,178.3 
	207.5,173.8 199.6,171.5 187,172.2 172.4,175.9 155.9,184.4 140.1,196.5 128.2,207.4 121.1,211 118.9,203.8 122.5,187.1 
	131.9,166.5 144.3,147.6 156.5,132.7 170.8,119.3 190.8,106.4 213.5,96.4 231.6,90 238.6,85 230.9,80.1 209.8,76.9 180.6,78.3 
	151.4,84.4 126.6,92.8 102.4,104.8 75.9,124.7 51.8,150 35,171.7 26.4,179.5 25.6,168.3 33.9,141 51.5,107.2 73.9,76.8 95.7,53.4 
	116.5,35 127.9,23.8 124.1,20.1 106.1,23.7 80.3,33.8 55.1,46.8 37.8,55.8 32.8,53.7 42.4,38.1 64.9,14.1 81.4,0 "/>
<line id="SvgjsPolyline1131" class="st0" x1="17.9" y1="13" x2="0" y2="23.9"/>
<line id="SvgjsPolyline1132" class="st0" x1="3.5" y1="5.8" x2="9" y2="0"/>
<path id="SvgjsPolyline1133" class="st0" d="M244.9,242.7"/>
<polyline id="SvgjsPolyline1134" class="st0" points="244,243.2 242.4,239.8 241.6,236.1 240.9,232.2 239.4,227.8 236.4,223.2 
	231.1,219 223.8,215.9 215.1,214.2 206.1,213.9 199.1,213.1 195.4,209.9 195.1,203.9 197.6,196.3 201.1,188.8 203,182.5 
	200.6,178.2 192.6,176.6 180.2,178.4 166,183.5 150.3,193.4 135.7,207 124.8,219.2 118,223.6 115.1,216.8 116.9,200 124.2,178.6 
	134.6,158.7 145.3,142.6 158.1,127.8 176.7,113 198.1,100.9 215.4,92.7 221.5,87.1 213.2,82.9 191.6,82 162.6,86.6 134.1,95.8 
	110.4,106.8 87.6,121.4 63.3,144.1 42.1,171.8 27.7,195.2 20,203.9 18,192.8 23.3,164.8 37.2,129.3 56.2,96.6 75.4,71 94.1,50.5 
	104.3,38.1 100.1,34.8 82.6,40.3 58,53.1 34.4,68.8 18.1,79.7 12.9,78.1 20.7,61.5 40.5,35.2 63.4,11.1 73.2,0 "/>
<polyline id="SvgjsPolyline1135" class="st0" points="51.3,1.2 23.1,17.4 0,33.9 "/>
<line id="SvgjsPolyline1136" class="st0" x1="5.2" y1="0" x2="0" y2="6.7"/>
<line id="SvgjsPolyline1137" class="st0" x1="5.2" y1="0" x2="0" y2="6.7"/>
<path id="SvgjsPolyline1138" class="st0" d="M244,243.2"/>
<polyline id="SvgjsPolyline1139" class="st0" points="243.5,243.8 241.6,240.6 240.4,237.1 239.2,233.2 237.4,229 233.9,224.7 
	228.3,221 220.7,218.6 211.9,217.7 202.9,218.3 195.9,218.2 191.8,215.4 190.9,209.5 192.5,201.8 195.1,194 196.2,187.7 
	193.4,183.7 185.2,182.9 173,186.1 159.5,192.6 144.9,204.1 131.8,219.1 122.2,232.2 116,237.2 112.4,230.6 112.6,213.6 
	117.7,191.6 126.1,170.7 135.1,153.6 146.4,137.6 163.4,121 183.6,106.8 200.1,96.9 205.8,90.6 197.2,87.3 175.7,88.5 147.4,95.7 
	120,107.7 97.4,120.8 76.1,137.5 54.1,162.4 35.6,192 23.6,216.7 16.7,226 13.7,215.2 16.3,186.8 26.7,150.1 42.6,115.8 59.2,88.5 
	75.9,66.3 84.8,53 80.3,50.2 63.4,57.3 40.2,72.4 18.1,90.2 3,102.6 0,102 0,95.1 "/>
<polyline id="SvgjsPolyline1140" class="st0" points="3.9,84.2 21.1,56.2 41.5,30 52.5,14.8 47.5,12.3 27.9,22 1,41.2 0,42 "/>
<line id="SvgjsPolyline1141" class="st0" x1="2.6" y1="0" x2="0" y2="3.1"/>
<line id="SvgjsPolyline1142" class="st0" x1="2.6" y1="0" x2="0" y2="3.1"/>
<path id="SvgjsPolyline1143" class="st0" d="M243.5,243.8"/>
<polyline id="SvgjsPolyline1144" class="st0" points="243.2,244.6 241,241.5 239.5,238.1 238,234.3 235.8,230.3 232,226.4 
	226.2,223.1 218.4,221.3 209.6,221.2 200.7,222.5 193.6,223 189.2,220.8 187.5,215.3 188,207.8 189.4,200.1 189.5,193.9 186,190.4 
	177.7,190.7 165.9,195.3 153.2,203.4 140,216.4 128.8,232.7 120.9,246.5 115.3,251.7 111,245.1 109.5,227.9 112.4,205.2 
	118.8,183.4 126,165.6 135.7,148.5 151.1,130.2 170,113.9 185.8,102.4 191.4,95.5 183.1,92.8 162.2,95.6 134.9,105.1 108.7,119.2 
	87.4,134.2 67.6,152.6 47.8,179.1 31.8,210.2 21.8,235.7 15.8,245.6 11.8,235.1 12.1,206.6 19.4,169.2 32.3,133.7 46.6,105.2 
	61.3,81.7 69.1,67.7 64.4,65.2 48.1,73.7 26.3,90.7 5.9,110.3 0,115.9 "/>
<polyline id="SvgjsPolyline1145" class="st0" points="5.9,76.2 24,48.4 33.4,32.7 27.4,31.4 7.6,43.9 0,50.6 "/>
<line id="SvgjsPolyline1146" class="st0" x1="0.2" y1="0" x2="0" y2="0.2"/>
<line id="SvgjsPolyline1147" class="st0" x1="0.2" y1="0" x2="0" y2="0.2"/>
<path id="SvgjsPolyline1148" class="st0" d="M243.2,244.6"/>
<polyline id="SvgjsPolyline1149" class="st0" points="243.2,245.3 240.8,242.5 239,239.2 237.2,235.6 234.7,231.7 230.6,228.1 
	224.6,225.3 216.8,223.9 208,224.4 199.2,226.3 192.1,227.5 187.3,226 184.7,221.2 184.1,214.2 184.2,207 183,201.3 178.7,198.6 
	170.3,200.2 159.2,206.3 147.6,216 136.3,230.5 127.2,247.8 121.1,261.9 116.1,267.1 111.2,260.3 107.9,242.7 108.6,219.4 
	112.8,196.9 118.2,178.4 126.2,160.4 139.9,140.5 157.5,122.2 172.7,108.9 178.5,101.3 170.8,98.9 151,103.1 124.9,114.2 
	100.1,129.9 80,146.3 61.6,165.9 43.7,193.7 30,225.8 21.8,251.9 16.5,262.3 11.8,252.2 10,223.9 14.6,186.2 24.9,150 37.1,120.5 
	50,96.1 56.7,81.6 51.8,79.4 36.3,89 15.8,107.4 0,124.9 "/>
<polyline id="SvgjsPolyline1150" class="st0" points="10.5,65.4 18.1,49.7 10.8,50.2 0,58.7 "/>
<path id="SvgjsPolyline1151" class="st0" d="M243.2,245.3"/>
<polyline id="SvgjsPolyline1152" class="st0" points="243.5,246.1 240.9,243.4 238.8,240.3 236.8,236.8 234,233.1 229.7,229.7 
	223.5,227.3 215.7,226.4 207,227.5 198.3,229.9 191.2,231.7 186,230.9 182.6,227.1 180.8,221.1 179.4,214.7 177,210 171.9,208.4 
	163.6,211.4 153.3,219.1 143.2,230.4 134.1,246.2 127.5,264.1 123.3,278.2 118.9,283 113.1,275.8 107.8,257.8 106.2,234 
	108.1,210.9 111.7,191.9 117.9,173.2 129.7,151.8 146,131.5 160.9,116.4 167,107.7 160.4,105.4 141.9,110.2 117.4,122.5 94,139.2 
	74.9,156.5 57.8,177.1 41.5,205.7 29.6,238.4 23,265.1 18.2,275.9 13,266.4 9.5,238.7 11.7,201.1 19.6,164.6 29.8,134.7 41,109.5 
	46.8,94.6 41.9,92.7 27.3,102.9 8.2,122.1 0,132.3 "/>
<polyline id="SvgjsPolyline1153" class="st0" points="0.7,80.1 6.5,64.9 0,67.1 "/>
<path id="SvgjsPolyline1154" class="st0" d="M243.5,246.1"/>
<polyline id="SvgjsPolyline1155" class="st0" points="244.1,246.8 241.2,244.3 239,241.4 236.7,238 233.6,234.5 229.1,231.4 
	222.7,229.3 214.9,228.9 206.3,230.4 197.8,233.3 190.7,235.7 185.1,235.9 181.1,233.2 178,228.5 175.3,223.4 171.7,219.9 
	166.1,219.8 158.1,224.4 149,233.7 140.7,246.4 134,263.3 130.1,281.4 127.7,295 123.7,299.2 116.7,291.5 109.4,273.1 105.2,248.8 
	104.9,225.3 106.6,206 110.9,186.7 120.8,164 135.7,141.6 150.2,124.4 157.1,114.4 151.8,111.7 135.1,116.7 112.3,129.3 90.2,146.4 
	72.2,164.1 56,185.1 40.9,214.1 30.3,247.2 24.7,274.4 20.4,286.2 14.9,277.9 10,251.5 10,214.8 15.6,178.6 23.8,148.5 33.3,123 
	38.2,107.7 33.6,105.6 20.1,115.8 2.8,134.9 0,138.6 "/>
<path id="SvgjsPolyline1156" class="st0" d="M244.1,246.8"/>
<polyline id="SvgjsPolyline1157" class="st0" points="244.8,247.5 241.8,245.2 239.3,242.4 236.7,239.2 233.4,235.9 228.5,233.1 
	222,231.4 214.1,231.5 205.6,233.5 197.3,236.9 190.3,240.1 184.5,241.2 179.9,239.8 175.9,236.5 172.1,233 167.6,231.1 
	161.6,232.6 154.3,238.8 146.8,249.6 140.6,263.5 136.6,281 135.4,298.8 134.6,311.7 130.6,315.1 122.3,307 112.6,288.3 
	105.8,263.8 103.2,240 102.9,220.5 105.3,200.8 113.2,176.9 126.5,152.5 140.6,133.1 148.4,121.4 144.9,117.7 130.2,122.2 
	109.4,134.4 88.7,151.1 71.5,168.6 56.1,189.2 41.7,218.1 31.6,251.4 26.5,279.5 22.7,292.9 17.1,287 11.2,263.1 9.1,228.7 
	12.2,193.6 18.1,163.8 25.7,138.3 29.6,122.5 25.5,119.7 13.8,128.8 0,144.8 "/>
<path id="SvgjsPolyline1158" class="st0" d="M244.8,247.5"/>
<polyline id="SvgjsPolyline1159" class="st0" points="245.7,248.1 242.6,246 239.8,243.3 236.8,240.3 233,237.3 227.8,234.9 
	220.9,233.8 213,234.6 204.7,237.3 196.7,241.4 189.9,245.3 184.1,247.4 179.1,247.2 174.5,245.4 170,243.5 165,243.1 159.2,246.1 
	152.8,253.8 147.1,265.9 143.1,280.6 141.9,298.3 143.2,315.5 143.8,327.4 139.6,330.1 129.7,321.8 117.5,303.1 108,278.6 
	102.9,254.8 100.7,235.4 101.1,215.4 106.8,190.5 118.3,164.1 131.9,142.4 140.5,128.7 138.9,123.6 126.7,127 108,138 88.8,153.6 
	72.6,170 57.7,189.6 43.5,217.5 33.3,250.8 28.2,280.2 24.8,296.4 19.5,294.4 12.9,275 8.8,244.4 9,211.9 12.1,183.3 17,158.2 
	19.7,141.9 16.4,137.5 7.3,143.9 0,152.3 "/>
<path id="SvgjsPolyline1160" class="st0" d="M245.7,248.1"/>
<polyline id="SvgjsPolyline1161" class="st0" points="246.5,248.6 243.3,246.7 240.2,244.2 236.8,241.4 232.5,238.8 226.6,237 
	219.4,236.8 211.4,238.7 203.4,242.3 195.9,247.3 189.5,252 184,255 178.9,255.9 174.1,255.2 169.3,254.4 164.2,255.2 158.8,259.4 
	153.6,268.2 149.8,281.1 148.1,296.3 149.5,313.7 153,330.1 154.6,341 150.1,343.3 138.6,335.3 123.9,317.1 111.6,293 104.1,269.5 
	100,250.3 98.4,230.5 101.6,204.8 111,176.8 123.4,152.8 132.5,136.9 132.8,130.1 123.1,132 106.9,141.3 89.6,155.1 74.4,169.9 
	60.2,187.6 46.1,214 35.3,246.8 29.7,277.7 26.6,297.7 22.1,301.4 15.5,288.5 9.5,264.1 6.4,235.8 6.1,209.6 7.7,185.8 8.6,169.1 
	6.1,162.1 0,163.9 "/>
<path id="SvgjsPolyline1162" class="st0" d="M246.5,248.6"/>
<polyline id="SvgjsPolyline1163" class="st0" points="247.2,249 243.8,247.3 240.4,245.1 236.5,242.6 231.5,240.5 225.1,239.7 
	217.4,240.8 209.5,244.1 202.1,248.9 195.4,255 189.7,260.6 184.7,264.3 179.8,265.7 174.9,265.4 170,265 165.1,266.3 160.3,271.1 
	156.3,280.4 154.1,293.7 154.4,309 157.9,326 163.3,341.6 165.9,351.8 161.2,354.2 148.4,346.9 131.5,330 116.6,306.8 106.8,284 
	100.8,265.3 97.2,245.7 97.9,219.9 104.4,190.9 114.9,165.2 123.5,147.4 124.9,138.9 117.6,139.2 104,146.9 89,158.7 75.4,171.3 
	62.4,186.6 48.7,210.6 37.4,242.3 31.2,274.7 28.4,299.1 25.2,309.6 19.3,305.1 12.1,288.7 6.1,266.7 2.1,244.5 0,224.4 "/>
<path id="SvgjsPolyline1164" class="st0" d="M247.2,249"/>
<polyline id="SvgjsPolyline1165" class="st0" points="247.4,249.3 244,247.9 240.3,246 236,244 230.3,242.7 223.2,243.1 215.4,246 
	208,251 201.4,257.3 195.9,264.5 191.3,270.9 186.8,274.9 182.1,276.1 177.1,275.5 172.1,274.6 167.2,275.4 162.9,279.9 
	159.7,289.2 158.8,302.6 160.5,317.8 165.6,334.4 172.5,349.5 176.1,359.4 171.8,362.3 158.4,356.4 140,341.3 123,319.8 
	110.9,298.1 103.1,280.1 97.6,261.1 95.5,235.9 98.7,207.1 106.1,180.8 112.8,162 114.1,152.4 108.2,151.7 97.2,158 84.8,167.9 
	73.5,178.2 62.3,190.8 50,212 39.1,241.9 32.9,275 30.8,303.3 29.3,320.8 25.2,325.2 18.4,318.1 10.7,303.9 3.7,287.2 0,276.5 "/>
<path id="SvgjsPolyline1166" class="st0" d="M247.4,249.3"/>
<polyline id="SvgjsPolyline1167" class="st0" points="247.3,249.6 243.8,248.5 239.9,247 235.1,245.6 228.9,245.3 221.6,247.4 
	214,252.3 207.5,259.2 202.3,266.8 198.3,275 194.9,281.8 190.9,285.6 186,286.2 180.4,284.5 174.9,282.2 169.8,281.8 165.5,285.4 
	162.8,294.2 162.6,307.4 165.1,322.5 171.3,339 179.4,353.9 184.3,364.1 181.1,367.9 168.1,363.8 149,351.1 130.4,331.8 
	116.4,311.7 106.8,294.6 99.4,276.5 94.7,252.7 94.3,225.6 97.6,200.6 101,182.5 100.6,173.3 95.1,172.7 86.1,178.5 76.4,187 
	67.6,195.1 58.8,205 48.9,223 40,250.2 35,282.4 34.3,312.9 35.2,335.8 34.2,348 29.5,349.7 22,343.5 13.7,333.4 5.6,321.9 0,312.2 
	"/>
<path id="SvgjsPolyline1168" class="st0" d="M247.3,249.6"/>
<polyline id="SvgjsPolyline1169" class="st0" points="246.6,250 243.3,249.3 239.3,248.2 234.2,247.5 227.8,248.3 220.6,252 
	213.8,258.8 208.6,267.2 204.9,276 202.6,284.8 200.3,291.7 196.6,295.1 191,294.8 184.4,291.6 177.9,287.7 172.3,285.6 
	167.8,287.9 165.1,296.1 165.1,309 168,324 174.8,340.5 183.9,355.8 190.4,366.6 188.9,371.6 177.2,369.5 158.4,359.4 138.8,342.8 
	123.2,324.7 112,308.7 102.9,291.7 95.8,270.2 92,246.3 91,224.9 90.2,210 87.3,203.5 81.5,204.8 74,211.4 66.7,219.2 60.2,225.3 
	53.7,232.6 46.8,247.1 41,270.3 38.6,299.5 40.1,329.2 43.7,354.2 46.1,371.2 44.7,379.3 39.3,379.8 31.7,375.8 23.4,370.1 
	14,360.6 3.6,346 0,339.4 "/>
<path id="SvgjsPolyline1170" class="st0" d="M246.6,250"/>
<polyline id="SvgjsPolyline1171" class="st0" points="245.8,250.6 242.6,250.3 238.7,249.6 233.6,249.5 227.3,251.3 220.5,256.2 
	214.7,264.2 210.9,273.6 208.7,282.9 207.7,292 206.3,298.9 202.4,301.9 196,300.9 188.2,296.7 180.8,291.3 174.6,287.8 169.8,289 
	167,296.6 167,309.3 170,324.2 177.2,340.9 187.4,356.6 195.6,368.2 196.1,374.3 186.2,374.1 168.3,366.7 148.2,352.9 131.2,336.9 
	118.5,322.2 107.9,306.5 98.9,287.8 92.4,268.3 87.9,252.2 83.9,242.9 79.1,241.5 73.4,246.9 67.7,255.7 62.5,263.6 57.5,268.2 
	52.7,273.2 48.4,283.9 45.7,301.9 46,325.5 49.5,350.8 54.9,373.8 59.5,391.5 60.8,402.4 58,407.1 52.3,407.6 45.5,406.5 
	36.3,401.4 24.2,390.4 10.4,373.5 0,357.2 "/>
<path id="SvgjsPolyline1172" class="st0" d="M245.8,250.6"/>
<polyline id="SvgjsPolyline1173" class="st0" points="245.2,251.5 242.2,251.3 238.4,251 233.5,251.3 227.6,253.5 221.3,258.9 
	216.3,267.3 213.4,277.1 212,286.6 211.9,295.7 210.9,302.4 207.1,305.4 200.1,304.3 191.6,299.8 183.6,294.1 176.9,290.1 
	172.1,290.9 169.3,298.1 169.6,310.7 172.9,325.4 180.7,342.1 191.9,358.1 201.7,370.1 204.2,376.9 196,378.3 178.9,373.2 
	158.5,362.1 140.4,348.2 126.4,335 114.4,320.7 104,304.8 95.8,289.9 89.6,279.8 84.4,277.1 79.8,282.1 76.1,292.5 73.2,304.3 
	70.1,313 66,317 61.8,320.5 58.8,327.7 57.7,339.8 59,356 62.7,374.1 67.4,391.5 71.6,405.9 73.4,416.2 71.9,422.3 68,425.3 
	63,427.1 55.4,425.8 44.7,419.9 31.4,409.3 17.3,395.2 4.2,379.9 0,374.8 "/>
<line id="SvgjsPolyline1174" class="st0" x1="1.9" y1="470.7" x2="0" y2="471.1"/>
<path id="SvgjsPolyline1175" class="st0" d="M245.2,251.5"/>
<polyline id="SvgjsPolyline1176" class="st0" points="245.1,252.2 242.3,252.2 238.7,252 234.1,252.4 228.5,254.6 222.6,259.8 
	217.9,267.9 215.1,277.5 213.9,286.8 213.9,295.9 213.2,302.7 209.6,306 202.9,305.5 194.6,301.8 186.6,296.9 179.9,293.7 
	175.2,295.1 173,302.6 173.9,315.1 178.1,329.6 187,345.9 199.5,361.3 210.8,372.9 214.6,379.9 207.5,382.3 190.8,379.3 
	169.9,370.5 150.8,358.6 135.5,346.9 122.2,334.1 110.8,320.7 101.8,309.7 95.3,304.7 91,307.7 88.8,318.2 88.9,333.1 89.9,347.4 
	89.4,357.2 86.1,361.5 82.2,364.8 79.2,369.5 77.5,376.3 77.2,385 77.9,394.9 79.1,404.7 79.8,413.6 79.4,420.8 77.3,426 74,429.7 
	70.1,432.9 64.8,434.5 57.7,433.8 48.9,430.9 39.1,426.4 29.5,421.5 20.8,417.4 13.5,415.2 7.9,415.5 3.4,417.8 0.7,422.9 
	4.4,437.7 15.9,461.5 32.1,487.2 41.1,500 "/>
<line id="SvgjsPolyline1177" class="st0" x1="16" y1="500" x2="0" y2="486.4"/>
<line id="SvgjsPolyline1178" class="st0" x1="16" y1="500" x2="0" y2="486.4"/>
<path id="SvgjsPolyline1179" class="st0" d="M245.1,252.2"/>
</svg>
